<?xml version="1.0" encoding="utf-8"?>
<!-- Generator: Adobe Illustrator 17.0.0, SVG Export Plug-In . SVG Version: 6.00 Build 0)  -->
<svg version="1.2" baseProfile="tiny" id="Calque_1"
	 xmlns="http://www.w3.org/2000/svg" xmlns:xlink="http://www.w3.org/1999/xlink" x="0px" y="0px" width="500px" height="500px"
	 viewBox="0 0 500 500" xml:space="preserve">
<g>
	<path d="M477.482,247.721l-41.52-41.52c-0.585-0.585-1.365-0.892-2.155-0.892c-0.487,0-0.979,0.117-1.431,0.358
		c-1.182,0.63-1.814,1.958-1.557,3.273c2.402,12.269,3.621,25.079,3.621,38.073c0,15.582-1.572,30.654-4.674,44.794
		c-0.289,1.322,0.327,2.676,1.514,3.324c0.459,0.252,0.962,0.375,1.46,0.375c0.789,0,1.569-0.307,2.155-0.892l42.586-42.586
		c0.571-0.571,0.892-1.346,0.892-2.153C478.373,249.067,478.053,248.292,477.482,247.721z"/>
	<path d="M308.242,149.579c-5.625-1.165-10.568-1.865-15.554-2.202l-0.309-0.048c-0.127-0.017-0.255-0.026-0.384-0.027l-1.632-0.01
		l-0.659-0.038c-2.213-0.117-4.426-0.232-6.743-0.232h-34.549h-35.46h-26.403V99.932h43.333h49.729
		c15.265,0,29.648,1.406,43.973,4.3c0.203,0.041,0.405,0.061,0.605,0.061c0.076,0,0.152-0.003,0.227-0.008
		c0.308,0.07,0.611,0.143,0.916,0.216l1.295,0.302c0.218,0.048,0.438,0.072,0.655,0.072c1.095,0,2.129-0.592,2.671-1.584
		c0.65-1.186,0.439-2.66-0.518-3.616l-77.407-77.406c-0.595-0.595-1.374-0.892-2.153-0.892c-0.78,0-1.559,0.298-2.154,0.892
		L114.419,155.569c-0.803,0.803-1.093,1.988-0.751,3.072l38.351,121.327c3.169,10.61,6.501,23.2,9.888,37.374
		c3.384,14.16,5.516,24.112,6.336,29.581c0.224,1.493,1.507,2.594,3.012,2.594c0.015,0,0.03,0,0.046,0
		c1.524-0.023,2.797-1.17,2.979-2.684c1.511-12.63,6.764-35.161,15.614-66.966l35.784-112.384h37.1l20.481,0.065L204.25,399.959
		h-26.698c-1.232,0-2.343,0.742-2.814,1.881c-0.471,1.138-0.211,2.448,0.66,3.319l72.323,72.323
		c0.571,0.571,1.346,0.892,2.154,0.892c0.807,0,1.582-0.321,2.153-0.892l78.765-78.765c0.965-0.965,1.17-2.454,0.502-3.644
		c-0.548-0.976-1.572-1.555-2.655-1.555c-0.237,0-0.478,0.028-0.716,0.085c-17.437,4.218-36.862,6.357-57.735,6.357h-44.346
		l16.01-47.51h34.408c64.265,0,96.85-34.91,96.85-103.76C373.111,191.81,351.286,158.465,308.242,149.579z"/>
	<path d="M71.574,204.626c-0.337-0.997-1.166-1.748-2.192-1.987c-0.229-0.053-0.461-0.08-0.692-0.08
		c-0.798,0-1.575,0.314-2.153,0.892l-44.269,44.27c-1.189,1.189-1.189,3.118,0,4.307l89.73,89.73
		c0.588,0.588,1.367,0.892,2.155,0.892c0.554,0,1.11-0.151,1.607-0.459c1.201-0.749,1.731-2.225,1.275-3.566L71.574,204.626z"/>
</g>
</svg>
